# xmcd
#
# Track frame offsets:
#	150
#	14173
#	43039
#	59952
#	78470
#	98491
#	118688
#	140773
#	160084
#	180335
#	205077
#	229996
#
# Disc length: 3257 seconds
#
# Revision: 4
# Processed by: cddbd v1.5.2PL0 Copyright (c) Steve Scherf et al.
# Submitted via: EasyCDDAExtractor 2010.6.0.0
#
DISCID=a70cb70c
DTITLE=Various Artist - Dance Collection 28-Fashion Dance
DYEAR=2003
DGENRE=Dance
TTITLE0=Bangles -  Manic Monday
TTITLE1=Peter Jacques Band - Welcome Back
TTITLE2=Soul Ii Soul - Back To Life (However Do You Want Me)
TTITLE3=Immagination - In And Out Of Love
TTITLE4=Eight Wonder - I'm Not Scared
TTITLE5=Nick Kamen - Each Time You Break My Heart
TTITLE6=Deodato - Happy Hour
TTITLE7=Paul Young - Come Back And Stay
TTITLE8=Haddaway - What Is Love
TTITLE9=Mel and Kim - Respectable
TTITLE10=Narada Michael Walden - The Real Thang
TTITLE11=B:U'Neek - Eeney Meeney
EXTD=YEAR: 2003
EXTT0=
EXTT1=
EXTT2=
EXTT3=
EXTT4=
EXTT5=
EXTT6=
EXTT7=
EXTT8=
EXTT9=
EXTT10=
EXTT11=
PLAYORDER=
